<svg width="27" height="22" viewBox="0 0 27 22" fill="none" xmlns="http://www.w3.org/2000/svg">
<path d="M2.52572 3.07552L13.4971 11.0755L23.859 3.07552M25.1924 6.00879V16.1421C25.1924 17.6356 25.1927 18.3825 24.902 18.9529C24.6464 19.4547 24.2379 19.8625 23.7361 20.1182C23.1657 20.4088 22.4195 20.4089 20.926 20.4089H5.45931C3.96584 20.4089 3.21854 20.4088 2.64811 20.1182C2.14635 19.8625 1.73869 19.4547 1.48303 18.9529C1.19238 18.3825 1.19238 17.6356 1.19238 16.1421V6.00879C1.19238 4.51532 1.19238 3.76867 1.48303 3.19824C1.73869 2.69648 2.14635 2.2885 2.64811 2.03284C3.21854 1.74219 3.96584 1.74219 5.45931 1.74219H20.926C22.4195 1.74219 23.1657 1.74219 23.7361 2.03284C24.2379 2.2885 24.6464 2.69648 24.902 3.19824C25.1927 3.76867 25.1924 4.51532 25.1924 6.00879Z" stroke="#7E92AE" stroke-width="2" stroke-linecap="round" stroke-linejoin="round"/>
</svg>
