<svg width="30" height="31" viewBox="0 0 30 31" fill="none" xmlns="http://www.w3.org/2000/svg">
<g id="Union">
<mask id="path-1-inside-1_969_4468" fill="white">
<path fill-rule="evenodd" clip-rule="evenodd" d="M14.9244 13.931L1.4895 0.496094L0.0752864 1.91031L13.5102 15.3452L0.0742188 28.7812L1.48843 30.1954L14.9244 16.7594L28.3596 30.1946L29.7738 28.7804L16.3386 15.3452L29.7727 1.91113L28.3585 0.496919L14.9244 13.931Z"/>
</mask>
<path fill-rule="evenodd" clip-rule="evenodd" d="M14.9244 13.931L1.4895 0.496094L0.0752864 1.91031L13.5102 15.3452L0.0742188 28.7812L1.48843 30.1954L14.9244 16.7594L28.3596 30.1946L29.7738 28.7804L16.3386 15.3452L29.7727 1.91113L28.3585 0.496919L14.9244 13.931Z" fill="white"/>
<path d="M1.4895 0.496094L2.19661 -0.211013L1.4895 -0.91812L0.782393 -0.211013L1.4895 0.496094ZM14.9244 13.931L14.2173 14.6381L14.9244 15.3452L15.6315 14.6381L14.9244 13.931ZM0.0752864 1.91031L-0.63182 1.2032L-1.33893 1.91031L-0.63182 2.61741L0.0752864 1.91031ZM13.5102 15.3452L14.2173 16.0523L14.9244 15.3452L14.2173 14.6381L13.5102 15.3452ZM0.0742188 28.7812L-0.632888 28.0741L-1.33999 28.7812L-0.632888 29.4883L0.0742188 28.7812ZM1.48843 30.1954L0.781326 30.9025L1.48843 31.6096L2.19554 30.9025L1.48843 30.1954ZM14.9244 16.7594L15.6315 16.0523L14.9244 15.3452L14.2173 16.0523L14.9244 16.7594ZM28.3596 30.1946L27.6524 30.9017L28.3596 31.6088L29.0667 30.9017L28.3596 30.1946ZM29.7738 28.7804L30.4809 29.4875L31.188 28.7804L30.4809 28.0733L29.7738 28.7804ZM16.3386 15.3452L15.6315 14.6381L14.9244 15.3452L15.6315 16.0523L16.3386 15.3452ZM29.7727 1.91113L30.4798 2.61824L31.1869 1.91113L30.4798 1.20403L29.7727 1.91113ZM28.3585 0.496919L29.0656 -0.210187L28.3585 -0.917294L27.6514 -0.210187L28.3585 0.496919ZM0.782393 1.2032L14.2173 14.6381L15.6315 13.2239L2.19661 -0.211013L0.782393 1.2032ZM0.782393 2.61741L2.19661 1.2032L0.782393 -0.211013L-0.63182 1.2032L0.782393 2.61741ZM14.2173 14.6381L0.782393 1.2032L-0.63182 2.61741L12.8031 16.0523L14.2173 14.6381ZM0.781326 29.4883L14.2173 16.0523L12.8031 14.6381L-0.632888 28.0741L0.781326 29.4883ZM2.19554 29.4883L0.781325 28.0741L-0.632888 29.4883L0.781326 30.9025L2.19554 29.4883ZM14.2173 16.0523L0.781326 29.4883L2.19554 30.9025L15.6315 17.4665L14.2173 16.0523ZM29.0667 29.4875L15.6315 16.0523L14.2173 17.4665L27.6524 30.9017L29.0667 29.4875ZM29.0667 28.0733L27.6525 29.4875L29.0667 30.9017L30.4809 29.4875L29.0667 28.0733ZM15.6315 16.0523L29.0667 29.4875L30.4809 28.0733L17.0457 14.6381L15.6315 16.0523ZM29.0656 1.20403L15.6315 14.6381L17.0457 16.0523L30.4798 2.61824L29.0656 1.20403ZM27.6514 1.20403L29.0656 2.61824L30.4798 1.20403L29.0656 -0.210187L27.6514 1.20403ZM15.6315 14.6381L29.0656 1.20403L27.6514 -0.210187L14.2173 13.2239L15.6315 14.6381Z" fill="#1772E1" mask="url(#path-1-inside-1_969_4468)"/>
</g>
</svg>
