<svg width="18" height="17" viewBox="0 0 18 17" fill="none" xmlns="http://www.w3.org/2000/svg">
<path d="M6.52754 3C7.07982 3 7.52754 2.55228 7.52754 2C7.52754 1.44772 7.07982 1 6.52754 1V3ZM16.5273 11C16.5273 10.4477 16.0796 10 15.5273 10C14.9751 10 14.5273 10.4477 14.5273 11H16.5273ZM14.4351 15.782L13.9811 14.891L14.4351 15.782ZM15.3096 14.908L14.4186 14.454L15.3096 14.908ZM1.74533 14.908L0.854324 15.362H0.854324L1.74533 14.908ZM2.61914 15.782L3.07313 14.891H3.07313L2.61914 15.782ZM2.61914 2.21799L3.07313 3.10899L2.61914 2.21799ZM1.74533 3.09204L2.63634 3.54603L1.74533 3.09204ZM15.5273 6C15.5273 6.55228 15.9751 7 16.5273 7C17.0796 7 17.5273 6.55228 17.5273 6H15.5273ZM16.5273 1H17.5273C17.5273 0.447715 17.0796 0 16.5273 0V1ZM11.5273 0C10.9751 0 10.5273 0.447715 10.5273 1C10.5273 1.55228 10.9751 2 11.5273 2V0ZM8.82024 7.29289C8.42971 7.68342 8.42971 8.31658 8.82024 8.70711C9.21076 9.09763 9.84393 9.09763 10.2345 8.70711L8.82024 7.29289ZM6.52754 1H4.72754V3H6.52754V1ZM0.527344 5.19995V12.8H2.52734V5.19995H0.527344ZM4.72754 17H12.3275V15H4.72754V17ZM16.5273 12.8V11H14.5273V12.8H16.5273ZM12.3275 17C12.8711 17 13.3388 17.0008 13.7224 16.9694C14.1177 16.9371 14.5108 16.8657 14.8891 16.673L13.9811 14.891C13.9316 14.9162 13.8309 14.9539 13.5595 14.9761C13.2762 14.9992 12.9041 15 12.3275 15V17ZM14.5273 12.8C14.5273 13.3767 14.5266 13.7489 14.5035 14.0323C14.4814 14.3041 14.4437 14.4047 14.4186 14.454L16.2006 15.362C16.3934 14.9835 16.4647 14.5902 16.4969 14.1949C16.5282 13.8113 16.5273 13.3435 16.5273 12.8H14.5273ZM14.8891 16.673C15.4531 16.3856 15.9127 15.927 16.2006 15.362L14.4186 14.454C14.323 14.6417 14.1698 14.7948 13.9811 14.891L14.8891 16.673ZM0.527344 12.8C0.527344 13.3435 0.526566 13.8113 0.557913 14.195C0.590212 14.5904 0.661523 14.9836 0.854324 15.362L2.63634 14.454C2.61115 14.4046 2.57347 14.3039 2.55127 14.0322C2.52812 13.7488 2.52734 13.3765 2.52734 12.8H0.527344ZM4.72754 15C4.15101 15 3.77861 14.9992 3.49516 14.9761C3.22332 14.9538 3.12253 14.9161 3.07313 14.891L2.16515 16.673C2.54357 16.8658 2.93693 16.9371 3.3323 16.9694C3.71607 17.0008 4.18396 17 4.72754 17V15ZM0.854324 15.362C1.14187 15.9264 1.60051 16.3853 2.16515 16.673L3.07313 14.891C2.88512 14.7952 2.73229 14.6424 2.63634 14.454L0.854324 15.362ZM4.72754 1C4.18398 1 3.71609 0.999223 3.33233 1.03057C2.93696 1.06286 2.54359 1.13416 2.16515 1.32698L3.07313 3.10899C3.12252 3.08383 3.22329 3.04613 3.49514 3.02393C3.7786 3.00078 4.151 3 4.72754 3V1ZM2.52734 5.19995C2.52734 4.6234 2.52812 4.25114 2.55127 3.96783C2.57346 3.6962 2.61114 3.59549 2.63634 3.54603L0.854324 2.63805C0.661535 3.01642 0.590216 3.40961 0.557914 3.80495C0.526566 4.18861 0.527344 4.6564 0.527344 5.19995H2.52734ZM2.16515 1.32698C1.60041 1.61473 1.14181 2.07382 0.854324 2.63805L2.63634 3.54603C2.73234 3.35761 2.88523 3.20474 3.07313 3.10899L2.16515 1.32698ZM17.5273 6V1H15.5273V6H17.5273ZM16.5273 0H11.5273V2H16.5273V0ZM10.2345 8.70711L17.2345 1.70711L15.8202 0.292893L8.82024 7.29289L10.2345 8.70711Z" fill="#FFA735"/>
</svg>
