<svg width="27" height="27" viewBox="0 0 27 27" fill="none" xmlns="http://www.w3.org/2000/svg">
<path d="M9.86298 2.75246C9.45801 1.74004 8.47746 1.07617 7.38704 1.07617H3.7187C2.32345 1.07617 1.19238 2.20729 1.19238 3.60254C1.19238 15.4621 10.8068 25.0761 22.6663 25.0761C24.0616 25.0761 25.1924 23.9452 25.1924 22.5499L25.1922 18.8815C25.1922 17.7911 24.5283 16.8107 23.5158 16.4057L20.0019 15C19.0925 14.6362 18.0571 14.8002 17.3046 15.4272L16.3965 16.1838C15.3369 17.0667 13.779 16.9961 12.8038 16.0209L10.2475 13.4648C9.27229 12.4896 9.20201 10.9316 10.085 9.87202L10.8415 8.96414C11.4685 8.21168 11.6324 7.17608 11.2686 6.26666L9.86298 2.75246Z" stroke="#7E92AE" stroke-width="2" stroke-linecap="round" stroke-linejoin="round"/>
</svg>
