<svg width="45" height="35" viewBox="0 0 45 35" fill="none" xmlns="http://www.w3.org/2000/svg">
<path d="M10.6771 34.5385C8.16377 34.5385 5.88877 33.6285 3.8521 31.8085C1.81543 29.9885 0.797101 27.1285 0.797101 23.2285C0.797101 19.8919 1.36043 16.7719 2.4871 13.8685C3.6571 10.9652 5.2171 8.38684 7.1671 6.13351C9.16043 3.83684 11.3704 1.95185 13.7971 0.478516L17.5671 2.42851C16.7871 3.12185 15.8554 4.18351 14.7721 5.61351C13.6888 7.00018 12.6921 8.64684 11.7821 10.5535C10.9154 12.4602 10.4171 14.5185 10.2871 16.7285C12.8438 16.8585 14.9888 17.7035 16.7221 19.2635C18.4988 20.8235 19.3871 22.8385 19.3871 25.3085C19.3871 28.1685 18.5204 30.4218 16.7871 32.0685C15.0538 33.7152 13.0171 34.5385 10.6771 34.5385ZM35.1747 34.5385C32.7047 34.5385 30.4514 33.6285 28.4147 31.8085C26.4214 29.9885 25.4247 27.1285 25.4247 23.2285C25.4247 19.8919 25.9881 16.7719 27.1147 13.8685C28.2847 10.9652 29.8447 8.38684 31.7947 6.13351C33.7447 3.83684 35.9114 1.95185 38.2947 0.478516L42.0647 2.42851C41.2847 3.12185 40.3531 4.18351 39.2697 5.61351C38.1864 7.00018 37.2114 8.64684 36.3447 10.5535C35.5214 12.4602 35.0447 14.5185 34.9147 16.7285C37.3847 16.8585 39.508 17.7035 41.2847 19.2635C43.1047 20.8235 44.0147 22.8385 44.0147 25.3085C44.0147 28.1685 43.1264 30.4218 41.3497 32.0685C39.573 33.7152 37.5147 34.5385 35.1747 34.5385Z" fill="#B3C8DB"/>
</svg>
