<svg width="15" height="15" viewBox="0 0 15 15" fill="none" xmlns="http://www.w3.org/2000/svg">
<path d="M10.4674 8.72063C10.0768 8.3301 9.44367 8.3301 9.05315 8.72063C8.66262 9.11115 8.66262 9.74432 9.05315 10.1348L10.4674 8.72063ZM13.0531 14.1348C13.4437 14.5254 14.0768 14.5254 14.4674 14.1348C14.8579 13.7443 14.8579 13.1112 14.4674 12.7206L13.0531 14.1348ZM6.42692 9.76107C4.40188 9.76107 2.76025 8.11945 2.76025 6.0944H0.760254C0.760254 9.22401 3.29731 11.7611 6.42692 11.7611V9.76107ZM2.76025 6.0944C2.76025 4.06936 4.40188 2.42773 6.42692 2.42773V0.427734C3.29731 0.427734 0.760254 2.96479 0.760254 6.0944H2.76025ZM6.42692 2.42773C8.45196 2.42773 10.0936 4.06936 10.0936 6.0944H12.0936C12.0936 2.96479 9.55653 0.427734 6.42692 0.427734V2.42773ZM10.0936 6.0944C10.0936 8.11945 8.45196 9.76107 6.42692 9.76107V11.7611C9.55653 11.7611 12.0936 9.22401 12.0936 6.0944H10.0936ZM9.05315 10.1348L13.0531 14.1348L14.4674 12.7206L10.4674 8.72063L9.05315 10.1348Z" fill="white"/>
</svg>
