<svg width="27" height="27" viewBox="0 0 27 27" fill="none" xmlns="http://www.w3.org/2000/svg">
<path d="M1.19238 14.0762H25.1924V12.0762H1.19238V14.0762ZM13.1924 24.0762C7.11725 24.0762 2.19238 19.1513 2.19238 13.0762H0.192383C0.192383 20.2559 6.01268 26.0762 13.1924 26.0762V24.0762ZM2.19238 13.0762C2.19238 7.00104 7.11725 2.07617 13.1924 2.07617V0.0761719C6.01268 0.0761719 0.192383 5.89647 0.192383 13.0762H2.19238ZM13.1924 2.07617C19.2675 2.07617 24.1924 7.00104 24.1924 13.0762H26.1924C26.1924 5.89647 20.3721 0.0761719 13.1924 0.0761719V2.07617ZM24.1924 13.0762C24.1924 19.1513 19.2675 24.0762 13.1924 24.0762V26.0762C20.3721 26.0762 26.1924 20.2559 26.1924 13.0762H24.1924ZM13.1924 24.0762C12.7814 24.0762 12.3146 23.8929 11.8058 23.4088C11.2919 22.9197 10.7836 22.1647 10.335 21.1553C9.43883 19.139 8.85905 16.2835 8.85905 13.0762H6.85905C6.85905 16.4963 7.47318 19.6407 8.50734 21.9676C9.02385 23.1298 9.66479 24.1322 10.427 24.8575C11.1944 25.5878 12.1306 26.0762 13.1924 26.0762V24.0762ZM8.85905 13.0762C8.85905 9.86889 9.43883 7.01332 10.335 4.99703C10.7836 3.98762 11.2919 3.23266 11.8058 2.74359C12.3146 2.25942 12.7814 2.07617 13.1924 2.07617V0.0761719C12.1306 0.0761719 11.1944 0.564499 10.427 1.2948C9.66479 2.02019 9.02385 3.02259 8.50734 4.18475C7.47318 6.51161 6.85905 9.65604 6.85905 13.0762H8.85905ZM13.1924 2.07617C13.6034 2.07617 14.0702 2.25942 14.579 2.74359C15.0929 3.23266 15.6012 3.98762 16.0498 4.99703C16.9459 7.01332 17.5257 9.86889 17.5257 13.0762H19.5257C19.5257 9.65604 18.9116 6.51161 17.8774 4.18475C17.3609 3.02259 16.72 2.02019 15.9577 1.2948C15.1904 0.564499 14.2541 0.0761719 13.1924 0.0761719V2.07617ZM17.5257 13.0762C17.5257 16.2835 16.9459 19.139 16.0498 21.1553C15.6012 22.1647 15.0929 22.9197 14.579 23.4088C14.0702 23.8929 13.6034 24.0762 13.1924 24.0762V26.0762C14.2541 26.0762 15.1904 25.5878 15.9577 24.8575C16.72 24.1322 17.3609 23.1298 17.8774 21.9676C18.9116 19.6407 19.5257 16.4963 19.5257 13.0762H17.5257Z" fill="#7E92AE"/>
</svg>
