<svg width="29" height="29" viewBox="0 0 29 29" fill="none" xmlns="http://www.w3.org/2000/svg">
<path fill-rule="evenodd" clip-rule="evenodd" d="M16.8479 22.9943C22.3487 21.8488 23.0723 16.8325 20.937 14.5123C19.914 13.3808 18.3817 12.7533 14.7395 11.8743C13.0781 11.4878 9.93254 10.7637 11.0974 9.04762C11.4805 8.41837 12.4396 8.04125 13.7166 7.97848C18.1178 7.6813 17.197 12.4631 20.2347 11.0567C21.6393 10.3661 21.5116 8.10412 19.9779 6.78424C16.6181 4.0552 7.00833 4.08727 7.00833 10.0518C7.00833 15.8559 15.3539 14.5673 17.4864 16.9001C18.5902 18.2548 17.4098 20.4406 13.9081 20.2927C9.9297 20.0025 10.9853 16.2718 8.54208 16.2718C6.68909 16.2718 6.05062 17.7804 7.00833 19.7281C8.66553 23.1115 13.3264 23.7379 16.9118 22.9943H16.8479ZM18.5732 27.8314C16.6819 27.2133 16.7756 27.2522 15.0588 27.329C8.29521 27.6443 3.06822 23.4072 1.38691 17.6547C0.687421 15.0764 1.47771 12.8022 0.684578 10.3034C-1.75723 3.76401 5.38376 -2.02069 11.1613 0.815781C11.6734 1.06831 11.9927 1.12955 13.9734 1.12955C15.7625 1.12955 16.4648 1.19216 17.3587 1.44469C21.3839 2.44924 24.643 5.02518 26.3669 8.6067C27.4537 10.8056 27.8368 13.0688 27.5814 15.6429C27.4537 17.027 27.4537 17.1523 27.7729 17.9685C29.7664 23.728 24.3124 29.3215 18.6356 27.8328L18.5732 27.8314Z" fill="#01A9F0"/>
</svg>
