<svg width="33" height="33" viewBox="0 0 33 33" fill="none" xmlns="http://www.w3.org/2000/svg">
<circle cx="16.2559" cy="16.9648" r="16" fill="url(#paint0_linear_281_1600)"/>
<path d="M24.3253 10.8061C23.9698 9.89399 23.2587 9.18287 22.3466 8.82731C21.7282 8.59543 21.0789 8.47175 20.4297 8.47175C19.3166 8.40991 19.0229 8.40993 16.2248 8.40993C13.4113 8.40993 13.1021 8.42537 12.02 8.47175C11.3553 8.48721 10.706 8.59543 10.1031 8.82731C9.19102 9.16741 8.47991 9.89399 8.12436 10.8061C7.89247 11.4244 7.7688 12.0892 7.7688 12.7539C7.70697 13.8669 7.70697 14.1606 7.70697 16.9587C7.70697 19.7722 7.72243 20.0814 7.7688 21.1636C7.78426 21.8128 7.89247 22.4775 8.12436 23.0804C8.47991 23.9925 9.19102 24.7036 10.1031 25.0592C10.7215 25.2911 11.3707 25.4148 12.02 25.4148C13.1331 25.4766 13.4268 25.4766 16.2248 25.4766C19.0384 25.4766 19.3475 25.4611 20.4297 25.4148C21.0789 25.3993 21.7437 25.2911 22.3466 25.0592C23.2587 24.7036 23.9698 23.9925 24.3253 23.0804C24.5572 22.4621 24.6809 21.7974 24.6809 21.1326H24.6963C24.7427 20.035 24.7427 19.7259 24.7427 16.9278C24.7427 14.1143 24.7273 13.8051 24.6809 12.723C24.6654 12.0737 24.5572 11.4244 24.3253 10.8061ZM16.2558 22.292C13.3186 22.292 10.9224 19.9114 10.9224 16.9587C10.9224 14.0215 13.3031 11.6254 16.2558 11.6254C19.193 11.6254 21.5891 14.0061 21.5891 16.9587C21.5736 19.8959 19.193 22.292 16.2558 22.292ZM21.7901 12.6766C21.1099 12.6766 20.5533 12.1201 20.5533 11.4399C20.5533 10.7597 21.1099 10.2032 21.7901 10.2032C22.4703 10.2032 23.0268 10.7597 23.0268 11.4399C23.0268 12.1201 22.4703 12.6766 21.7901 12.6766ZM16.2558 13.4959C14.3389 13.4959 12.793 15.0418 12.793 16.9587C12.793 18.8756 14.3389 20.4215 16.2558 20.4215C18.1727 20.4215 19.7186 18.8756 19.7186 16.9587C19.7186 15.0418 18.1572 13.4959 16.2558 13.4959ZM26.5669 21.2718C26.5514 22.1375 26.3814 22.9877 26.0876 23.7916C25.5466 25.1829 24.449 26.2805 23.0577 26.8215C22.2538 27.1307 21.4036 27.2853 20.5379 27.3007C19.4403 27.3626 19.0847 27.3626 16.2558 27.3626C13.4268 27.3626 13.0867 27.3471 11.9736 27.3007C11.1079 27.2698 10.2577 27.0998 9.45383 26.7751C8.06252 26.2341 6.96494 25.1365 6.42388 23.7452C6.1147 22.9413 5.96011 22.0911 5.94465 21.2254C5.88281 20.1278 5.88281 19.7722 5.88281 16.9433C5.88281 14.1297 5.89827 13.7742 5.94465 12.6611C5.96011 11.7954 6.13016 10.9452 6.42388 10.1413C6.96494 8.75002 8.06252 7.65244 9.45383 7.11138C10.2577 6.8022 11.1079 6.64761 11.9736 6.63215C13.0712 6.57032 13.4268 6.57031 16.2558 6.57031C19.0847 6.57031 19.4248 6.58578 20.5379 6.63215C21.4036 6.64761 22.2538 6.81766 23.0577 7.11138C24.449 7.65244 25.5466 8.75002 26.0876 10.1413C26.3968 10.9606 26.5514 11.8263 26.5669 12.692C26.6287 13.7896 26.6287 14.1452 26.6287 16.9742C26.6287 19.8032 26.6132 20.1742 26.5669 21.2718Z" fill="white"/>
<defs>
<linearGradient id="paint0_linear_281_1600" x1="4.34153" y1="29.1672" x2="25.5481" y2="4.04858" gradientUnits="userSpaceOnUse">
<stop stop-color="#FFD776"/>
<stop offset="0.148969" stop-color="#F3A554"/>
<stop offset="0.291419" stop-color="#F15C3C"/>
<stop offset="0.511205" stop-color="#D94867"/>
<stop offset="0.653655" stop-color="#C32F87"/>
<stop offset="0.834243" stop-color="#7E63A7"/>
<stop offset="0.9852" stop-color="#5C6CB3"/>
<stop offset="1" stop-color="#5C6CB3"/>
</linearGradient>
</defs>
</svg>
