<svg width="33" height="33" viewBox="0 0 33 33" fill="none" xmlns="http://www.w3.org/2000/svg">
<circle cx="16.6211" cy="16.9648" r="16" fill="#38B4E3"/>
<path d="M7.1258 16.8712C7.53889 17.0089 9.96842 17.784 11.1316 18.1543C14.1599 16.2463 20.2525 12.4047 20.3966 12.3018C20.5767 12.1732 20.6538 12.1303 20.8425 12.1217C21.0311 12.1132 21.0826 12.2932 20.9282 12.4304C20.8047 12.5402 20.5224 12.7906 20.3966 12.902L13.4255 19.2815C13.3197 20.5391 13.1082 23.1264 13.1082 23.4145C13.4032 23.4694 13.8542 23.1001 14.0428 22.9086L15.8457 21.1676C16.8264 21.8975 18.9841 23.5001 19.7687 24.0719C20.7494 24.7865 21.198 24.0719 21.3196 23.6157C21.4169 23.2508 21.4767 22.9264 21.4945 22.8098C22.2446 19.2771 23.7859 12.0398 23.9501 11.3526C24.1554 10.4935 24.1098 10.1513 23.8741 9.84723C23.6384 9.54312 23.3875 9.49751 23.015 9.61915C22.717 9.71647 21.6896 10.1108 21.2132 10.2958C16.7022 12.0393 7.58002 15.5645 7.1786 15.7165C6.67682 15.9066 6.48676 16.1499 6.49436 16.3703C6.50196 16.5908 6.60944 16.6991 7.1258 16.8712Z" fill="white"/>
</svg>
