<svg width="33" height="33" viewBox="0 0 33 33" fill="none" xmlns="http://www.w3.org/2000/svg">
<circle cx="16.9727" cy="16.9648" r="16" fill="#4C75A3"/>
<path d="M24.8156 22.7744C25.8978 22.8207 27.1036 22.8671 27.1963 22.1096C27.2427 21.7232 26.7635 21.1048 26.5161 20.8111C25.9132 20.0381 25.3876 19.5435 24.6456 18.8478C24.29 18.5386 23.8572 18.1985 23.8263 17.7502C23.7953 17.1628 24.3673 16.5908 24.6456 16.2198C25.3412 15.3077 25.9751 14.643 26.6089 13.5918C26.7789 13.329 27.32 12.3241 27.1345 11.9222C26.9181 11.443 25.6813 11.6285 24.9857 11.6285C24.1354 11.6285 23.2079 11.4584 22.6359 11.6749C22.2495 11.814 22.033 12.6024 21.8166 13.0662C21.3065 14.1947 20.9045 14.9367 20.2398 15.8024C19.9461 16.2043 19.6678 16.699 19.1422 16.7609C18.462 16.3125 18.6321 15.2922 18.663 14.3183C18.6939 13.4526 18.9567 12.2932 18.5702 11.6439C18.1992 11.0101 16.8543 11.1183 15.8958 11.1183C14.7519 11.1183 13.7934 11.1956 13.4533 11.8913C13.8707 12.1386 14.2726 12.1386 14.5045 12.556C14.7364 13.0043 14.7519 14.0246 14.7364 14.8594C14.721 15.586 14.6746 16.7299 14.2108 16.8227C13.7316 16.9154 13.3297 16.2043 13.0669 15.8178C12.464 14.9367 12.0002 14.1637 11.49 13.0816C11.2582 12.6024 10.9954 11.8758 10.7171 11.7367C10.2688 11.5048 9.27941 11.6439 8.66105 11.6439C7.91902 11.6439 7.19245 11.5048 6.74414 11.8758C6.74414 12.6488 7.14608 13.3444 7.45526 13.9782C8.41371 15.9261 9.434 17.6884 10.7635 19.3889C12.0002 20.9811 13.4069 22.4497 16.1741 22.7435C17.0553 22.8362 18.3229 22.929 18.6166 22.4034C18.9876 21.7541 18.5548 20.2391 19.4359 20.1C20.0543 19.9918 20.5799 20.8575 20.92 21.2439C21.5229 21.9241 22.234 22.6507 23.2697 22.8208H23.3625C23.6871 22.728 24.2437 22.7434 24.8156 22.7744Z" fill="white"/>
</svg>
