<svg width="21" height="12" viewBox="0 0 21 12" fill="none" xmlns="http://www.w3.org/2000/svg">
<path d="M18.2746 11.8095C19.3568 11.8559 20.5625 11.9023 20.6553 11.1448C20.7017 10.7583 20.2224 10.14 19.9751 9.84624C19.3722 9.0733 18.8466 8.57862 18.1046 7.88297C17.749 7.57379 17.3162 7.23368 17.2853 6.78537C17.2543 6.19793 17.8263 5.62596 18.1046 5.25495C18.8002 4.34287 19.4341 3.67814 20.0679 2.62693C20.2379 2.36413 20.779 1.35929 20.5935 0.957355C20.377 0.478128 19.1403 0.663631 18.4447 0.663631C17.5944 0.663631 16.6669 0.493592 16.0949 0.710017C15.7084 0.849147 15.492 1.63755 15.2756 2.10132C14.7654 3.22982 14.3635 3.97184 13.6988 4.83754C13.4051 5.23948 13.1268 5.73417 12.6012 5.79601C11.921 5.3477 12.0911 4.3274 12.122 3.35349C12.1529 2.48779 12.4157 1.32836 12.0292 0.679087C11.6582 0.0452708 10.3133 0.153498 9.35482 0.153498C8.21086 0.153498 7.2524 0.230793 6.91231 0.926445C7.3297 1.17379 7.73163 1.17378 7.96351 1.59117C8.1954 2.03948 8.21086 3.05977 8.1954 3.89455C8.17994 4.62112 8.13356 5.76508 7.66979 5.85783C7.19056 5.95058 6.78864 5.23947 6.52583 4.853C5.92294 3.97184 5.45917 3.1989 4.94902 2.11678C4.71714 1.63755 4.45433 0.910986 4.17607 0.771856C3.72776 0.539972 2.73839 0.679087 2.12004 0.679087C1.37801 0.679087 0.651434 0.539957 0.203125 0.910971C0.203125 1.68392 0.605063 2.37959 0.914242 3.0134C1.8727 4.96123 2.89298 6.72355 4.22245 8.42403C5.45916 10.0163 6.86593 11.4849 9.63308 11.7786C10.5142 11.8714 11.7819 11.9641 12.0756 11.4385C12.4466 10.7892 12.0138 9.27427 12.8949 9.13514C13.5133 9.02693 14.0389 9.89263 14.379 10.2791C14.9819 10.9593 15.693 11.6859 16.7287 11.8559H16.8215C17.1461 11.7632 17.7026 11.7786 18.2746 11.8095Z" fill="white"/>
</svg>
