<svg width="22" height="22" viewBox="0 0 22 22" fill="none" xmlns="http://www.w3.org/2000/svg">
<path d="M18.7784 4.84122C18.4229 3.92914 17.7118 3.21803 16.7997 2.86247C16.1813 2.63059 15.5321 2.50691 14.8828 2.50691C13.7698 2.44507 13.476 2.44509 10.678 2.44509C7.86444 2.44509 7.55526 2.46053 6.47313 2.50691C5.8084 2.52237 5.15913 2.63059 4.55623 2.86247C3.64415 3.20257 2.93304 3.92914 2.57748 4.84122C2.3456 5.45958 2.22193 6.12431 2.22193 6.78904C2.16009 7.90209 2.16009 8.1958 2.16009 10.9939C2.16009 13.8074 2.17555 14.1166 2.22193 15.1987C2.23739 15.848 2.3456 16.5127 2.57748 17.1156C2.93304 18.0277 3.64415 18.7388 4.55623 19.0944C5.17458 19.3262 5.82386 19.4499 6.47313 19.4499C7.58618 19.5118 7.8799 19.5117 10.678 19.5117C13.4915 19.5117 13.8007 19.4963 14.8828 19.4499C15.5321 19.4345 16.1968 19.3262 16.7997 19.0944C17.7118 18.7388 18.4229 18.0277 18.7784 17.1156C19.0103 16.4972 19.134 15.8325 19.134 15.1678H19.1495C19.1958 14.0702 19.1958 13.761 19.1958 10.963C19.1958 8.14943 19.1804 7.84024 19.134 6.75811C19.1185 6.10884 19.0103 5.45958 18.7784 4.84122ZM10.7089 16.3272C7.77169 16.3272 5.37555 13.9465 5.37555 10.9939C5.37555 8.05667 7.75623 5.66053 10.7089 5.66053C13.6461 5.66053 16.0422 8.04121 16.0422 10.9939C16.0268 13.9311 13.6461 16.3272 10.7089 16.3272ZM16.2432 6.71175C15.563 6.71175 15.0065 6.15523 15.0065 5.47503C15.0065 4.79484 15.563 4.23832 16.2432 4.23832C16.9234 4.23832 17.4799 4.79484 17.4799 5.47503C17.4799 6.15523 16.9234 6.71175 16.2432 6.71175ZM10.7089 7.53106C8.79198 7.53106 7.24608 9.07696 7.24608 10.9939C7.24608 12.9108 8.79198 14.4567 10.7089 14.4567C12.6258 14.4567 14.1717 12.9108 14.1717 10.9939C14.1717 9.07696 12.6103 7.53106 10.7089 7.53106ZM21.02 15.3069C21.0045 16.1726 20.8345 17.0229 20.5408 17.8267C19.9997 19.218 18.9021 20.3156 17.5108 20.8567C16.707 21.1659 15.8567 21.3204 14.991 21.3359C13.8934 21.3977 13.5379 21.3977 10.7089 21.3977C7.8799 21.3977 7.5398 21.3823 6.42676 21.3359C5.56106 21.305 4.71082 21.1349 3.90695 20.8103C2.51565 20.2692 1.41806 19.1716 0.877 17.7803C0.567822 16.9765 0.413232 16.1262 0.397773 15.2605C0.335937 14.1629 0.335938 13.8074 0.335938 10.9784C0.335938 8.16489 0.351396 7.80934 0.397773 6.69629C0.413232 5.83059 0.58328 4.98034 0.877 4.17648C1.41806 2.78518 2.51565 1.68759 3.90695 1.14653C4.71082 0.837353 5.56106 0.682767 6.42676 0.667308C7.52434 0.605473 7.8799 0.605469 10.7089 0.605469C13.5379 0.605469 13.878 0.620931 14.991 0.667308C15.8567 0.682767 16.707 0.852812 17.5108 1.14653C18.9021 1.68759 19.9997 2.78518 20.5408 4.17648C20.8499 4.9958 21.0045 5.8615 21.02 6.7272C21.0818 7.82479 21.0818 8.18034 21.0818 11.0093C21.0818 13.8383 21.0664 14.2093 21.02 15.3069Z" fill="white"/>
</svg>
