<svg width="33" height="33" viewBox="0 0 33 33" fill="none" xmlns="http://www.w3.org/2000/svg">
<circle cx="16.5449" cy="16.9648" r="16" fill="#F7931E"/>
<path fill-rule="evenodd" clip-rule="evenodd" d="M16.5866 14.0839C19.5087 14.1148 19.586 9.47775 16.4475 9.63232C13.4945 9.75597 13.6027 14.0375 16.5866 14.0839ZM11.1445 10.7916C11.7165 7.53018 14.9169 5.96905 17.5916 6.49458C20.7301 7.11286 22.3843 10.0497 21.936 12.7082C20.7455 19.9266 9.8922 17.979 11.1445 10.7916ZM21.8741 27.0368C20.7764 28.1033 19.6633 27.0677 18.8593 26.2639C18.1636 25.5684 17.3287 24.6873 16.5866 24.0845C14.5922 26.0939 12.9534 28.5206 11.3919 27.114C9.52114 25.4292 13.3244 23.1262 14.283 21.7351C13.3399 21.5032 11.732 20.9468 10.9899 20.3439C10.2478 19.7411 10.1396 18.4118 11.0672 17.7781C12.1804 17.0053 12.907 17.9017 14.1902 18.35C19.0758 20.0503 21.0856 15.6605 22.4771 18.2882C23.6676 20.5294 19.4159 21.4105 18.9057 21.7505C20.8847 23.729 23.4511 25.5065 21.8741 27.0368Z" fill="white"/>
</svg>
