<svg width="33" height="33" viewBox="0 0 33 33" fill="none" xmlns="http://www.w3.org/2000/svg">
<g clip-path="url(#clip0_281_1594)">
<path d="M15.3756 1.71353C19.3064 1.57469 23.2535 1.99122 27.0623 2.96312C27.6157 3.0938 28.1691 3.24898 28.6818 3.50216C30.4478 4.32705 31.7744 6.00951 32.1813 7.92064C33.044 12.2329 33.0521 16.7249 32.1976 21.0372C31.8558 22.7197 30.7978 24.2306 29.3573 25.1454C28.6737 25.5946 27.8924 25.8641 27.0948 26.0438C26.7205 26.1091 26.4356 26.4685 26.4438 26.8442C26.4438 28.5348 26.4438 30.2254 26.4438 31.916C26.4763 32.2264 26.045 32.3325 25.8415 32.161C24.1325 30.7154 22.4316 29.2698 20.7306 27.8324C20.2912 27.4322 19.6971 27.2198 19.103 27.2607C14.6513 27.4975 10.1589 27.032 5.85373 25.8559C3.69707 25.2107 1.9636 23.3404 1.49158 21.1271C0.604497 16.7739 0.604497 12.2493 1.4753 7.90431C1.94733 5.65015 3.73776 3.74718 5.94326 3.13463C9.01955 2.29341 12.1935 1.81971 15.3756 1.71353Z" fill="#E42323"/>
<path d="M10.3385 7.37328C9.92344 7.43045 9.58976 7.81431 9.60604 8.23084C9.60604 9.25992 9.60604 10.289 9.60604 11.3181C9.60604 11.7673 10.0211 12.1675 10.4687 12.1593C11.3883 12.1593 12.3161 12.1593 13.2357 12.1593C13.4229 12.1593 13.6264 12.1348 13.8054 12.2083C14.1472 12.3226 14.3995 12.6738 14.3833 13.0414C14.3833 15.7937 14.3833 18.5461 14.3833 21.2984C14.3588 21.7803 14.7902 22.2213 15.2703 22.1968C16.4097 22.1968 17.5491 22.1968 18.6884 22.1968C19.1767 22.2295 19.6325 21.7803 19.5999 21.2903C19.5999 18.5379 19.5999 15.7855 19.5999 13.0414C19.5755 12.5677 20.0069 12.1511 20.4707 12.1675C21.4718 12.1593 22.4809 12.1675 23.4819 12.1675C23.9377 12.192 24.369 11.8081 24.3771 11.3426C24.3853 10.3053 24.3771 9.25992 24.3771 8.22268C24.3934 7.74081 23.9458 7.33245 23.4819 7.36512C19.1035 7.37328 14.7169 7.35695 10.3385 7.37328Z" fill="white"/>
</g>
<defs>
<clipPath id="clip0_281_1594">
<rect width="32" height="32" fill="white" transform="translate(0.828125 0.964844)"/>
</clipPath>
</defs>
</svg>
