<svg width="19" height="16" viewBox="0 0 19 16" fill="none" xmlns="http://www.w3.org/2000/svg">
<path d="M1.58479 7.90637C1.99788 8.04407 4.42741 8.81914 5.59053 9.18946C8.61886 7.2815 14.7115 3.43987 14.8556 3.33697C15.0356 3.20835 15.1128 3.16548 15.3015 3.15691C15.4901 3.14833 15.5415 3.3284 15.3872 3.46559C15.2637 3.57535 14.9813 3.82572 14.8556 3.93719L7.88444 10.3167C7.77868 11.5743 7.56718 14.1615 7.56718 14.4496C7.86214 14.5045 8.31317 14.1352 8.50181 13.9437L10.3047 12.2028C11.2854 12.9327 13.443 14.5353 14.2276 15.107C15.2084 15.8217 15.6569 15.107 15.7786 14.6509C15.8759 14.2859 15.9357 13.9616 15.9535 13.845C16.7036 10.3123 18.2449 3.07501 18.4091 2.38772C18.6144 1.52862 18.5688 1.1865 18.3331 0.882388C18.0974 0.578281 17.8465 0.532665 17.474 0.654308C17.176 0.751622 16.1486 1.14595 15.6722 1.33095C11.1612 3.0745 2.03901 6.59961 1.63759 6.75167C1.13581 6.94174 0.945741 7.18502 0.953344 7.4055C0.960946 7.62598 1.06842 7.73425 1.58479 7.90637Z" fill="white"/>
</svg>
