<svg width="14" height="22" viewBox="0 0 14 22" fill="none" xmlns="http://www.w3.org/2000/svg">
<path fill-rule="evenodd" clip-rule="evenodd" d="M7.04366 8.11906C9.9657 8.14998 10.043 3.51291 6.90451 3.66748C3.95154 3.79113 4.05977 8.07269 7.04366 8.11906ZM1.60153 4.82674C2.17357 1.56534 5.37392 0.00420719 8.04859 0.529741C11.1871 1.14802 12.8414 4.08481 12.393 6.7434C11.2025 13.9618 0.34923 12.0142 1.60153 4.82674ZM12.3312 21.0719C11.2335 22.1384 10.1203 21.1028 9.31635 20.2991C8.62063 19.6035 7.78576 18.7225 7.04366 18.1197C5.04925 20.129 3.41041 22.5558 1.8489 21.1492C-0.021826 19.4644 3.78148 17.1613 4.74003 15.7702C3.79694 15.5384 2.18904 14.9819 1.44693 14.3791C0.704823 13.7763 0.5966 12.447 1.52423 11.8133C2.63739 11.0404 3.36405 11.9369 4.64727 12.3852C9.5328 14.0854 11.5427 9.69565 12.9341 12.3233C14.1246 14.5646 9.87294 15.4456 9.36274 15.7857C11.3417 17.7641 13.9081 19.5417 12.3312 21.0719Z" fill="white"/>
</svg>
