<svg width="17" height="19" viewBox="0 0 17 19" fill="none" xmlns="http://www.w3.org/2000/svg">
<path fill-rule="evenodd" clip-rule="evenodd" d="M16.1738 3.14127V12.7834V12.7864C16.1738 13.7889 16.1738 14.2907 15.9803 14.674C15.8098 15.0115 15.5375 15.2858 15.203 15.4578C14.8227 15.6533 14.3251 15.6533 13.3294 15.6533H5.6161H5.61607C5.24628 15.6533 5.06119 15.6533 4.88433 15.6899C4.72742 15.7224 4.57578 15.7762 4.43313 15.8497C4.27235 15.9326 4.128 16.049 3.83923 16.2821L2.48459 17.3755C1.74488 17.9726 1.37485 18.2711 1.06359 18.2715C0.792882 18.2718 0.536891 18.1476 0.368012 17.9341C0.173828 17.6887 0.173828 17.2108 0.173828 16.255V3.14127C0.173828 2.13674 0.173828 1.63453 0.367594 1.25085C0.538036 0.913355 0.809804 0.638942 1.14431 0.46698C1.5246 0.271484 2.0228 0.271484 3.01845 0.271484H13.3296C14.3252 0.271484 14.8227 0.271484 15.203 0.46698C15.5375 0.638942 15.8098 0.913355 15.9803 1.25085C16.1738 1.63415 16.1738 2.13575 16.1738 3.13831V3.14127ZM2.60321 9.55983C2.94129 9.20336 3.49951 9.18991 3.85394 9.52817L3.85547 9.52957C3.85972 9.53342 3.86975 9.54237 3.88562 9.55572C3.91736 9.58243 3.9724 9.62667 4.0512 9.68286C4.20879 9.79524 4.46129 9.95534 4.8129 10.1189C5.51299 10.4445 6.6193 10.7902 8.17405 10.7902C9.72879 10.7902 10.8351 10.4445 11.5352 10.1189C11.8868 9.95534 12.1393 9.79524 12.2969 9.68286C12.3757 9.62667 12.4307 9.58243 12.4625 9.55572C12.4783 9.54237 12.4884 9.53342 12.4926 9.52957L12.4942 9.52817C12.8486 9.18991 13.4068 9.20336 13.7449 9.55983C14.0849 9.91836 14.0735 10.4881 13.7194 10.8324C13.6996 10.8513 13.7187 10.833 13.7187 10.833C13.6801 10.8704 13.6396 10.9057 13.5986 10.9402C13.5324 10.9959 13.4399 11.0694 13.3206 11.1545C13.0819 11.3247 12.7357 11.5413 12.2774 11.7545C11.3575 12.1824 9.99899 12.5902 8.17405 12.5902C6.34911 12.5902 4.99057 12.1824 4.07074 11.7545C3.61239 11.5413 3.26616 11.3247 3.02751 11.1545C2.88874 11.0555 2.75219 10.9521 2.62939 10.833C2.62939 10.833 2.82621 11.0043 2.62868 10.8324C2.27459 10.4881 2.26318 9.91836 2.60321 9.55983Z" fill="white"/>
</svg>
