<svg width="18" height="18" viewBox="0 0 18 18" fill="none" xmlns="http://www.w3.org/2000/svg">
<path d="M6.30488 3.06641C6.85717 3.06641 7.30488 2.61869 7.30488 2.06641C7.30488 1.51412 6.85717 1.06641 6.30488 1.06641V3.06641ZM16.3047 11.0664C16.3047 10.5141 15.857 10.0664 15.3047 10.0664C14.7524 10.0664 14.3047 10.5141 14.3047 11.0664H16.3047ZM14.2125 15.8484L13.7585 14.9574L14.2125 15.8484ZM15.0869 14.9744L14.1959 14.5204L15.0869 14.9744ZM1.52267 14.9744L0.631668 15.4284H0.631668L1.52267 14.9744ZM2.39648 15.8484L2.85047 14.9574H2.85047L2.39648 15.8484ZM2.39648 2.28439L2.85047 3.1754L2.39648 2.28439ZM1.52267 3.15845L2.41368 3.61244L1.52267 3.15845ZM15.3047 6.06641C15.3047 6.61869 15.7524 7.06641 16.3047 7.06641C16.857 7.06641 17.3047 6.61869 17.3047 6.06641H15.3047ZM16.3047 1.06641H17.3047C17.3047 0.514121 16.857 0.0664062 16.3047 0.0664062V1.06641ZM11.3047 0.0664062C10.7524 0.0664062 10.3047 0.514121 10.3047 1.06641C10.3047 1.61869 10.7524 2.06641 11.3047 2.06641V0.0664062ZM8.59758 7.3593C8.20706 7.74982 8.20706 8.38299 8.59758 8.77351C8.9881 9.16404 9.62127 9.16404 10.0118 8.77351L8.59758 7.3593ZM6.30488 1.06641H4.50488V3.06641H6.30488V1.06641ZM0.304688 5.26636V12.8664H2.30469V5.26636H0.304688ZM4.50488 17.0664H12.1049V15.0664H4.50488V17.0664ZM16.3047 12.8664V11.0664H14.3047V12.8664H16.3047ZM12.1049 17.0664C12.6484 17.0664 13.1162 17.0672 13.4998 17.0358C13.8951 17.0035 14.2882 16.9322 14.6665 16.7394L13.7585 14.9574C13.709 14.9826 13.6083 15.0203 13.3368 15.0425C13.0536 15.0656 12.6814 15.0664 12.1049 15.0664V17.0664ZM14.3047 12.8664C14.3047 13.4431 14.304 13.8153 14.2809 14.0988C14.2587 14.3705 14.221 14.4711 14.1959 14.5204L15.9779 15.4284C16.1708 15.0499 16.242 14.6566 16.2742 14.2613C16.3055 13.8777 16.3047 13.4099 16.3047 12.8664H14.3047ZM14.6665 16.7394C15.2304 16.452 15.69 15.9934 15.9779 15.4284L14.1959 14.5204C14.1003 14.7081 13.9472 14.8612 13.7585 14.9574L14.6665 16.7394ZM0.304688 12.8664C0.304688 13.4099 0.30391 13.8777 0.335256 14.2614C0.367556 14.6568 0.438867 15.05 0.631668 15.4284L2.41368 14.5204C2.3885 14.471 2.35081 14.3703 2.32862 14.0986C2.30547 13.8152 2.30469 13.4429 2.30469 12.8664H0.304688ZM4.50488 15.0664C3.92835 15.0664 3.55596 15.0656 3.27251 15.0425C3.00067 15.0203 2.89988 14.9826 2.85047 14.9574L1.94249 16.7394C2.32092 16.9322 2.71427 17.0035 3.10965 17.0358C3.49342 17.0672 3.96131 17.0664 4.50488 17.0664V15.0664ZM0.631668 15.4284C0.919211 15.9928 1.37786 16.4517 1.94249 16.7394L2.85047 14.9574C2.66246 14.8616 2.50963 14.7088 2.41368 14.5204L0.631668 15.4284ZM4.50488 1.06641C3.96132 1.06641 3.49343 1.06563 3.10967 1.09697C2.7143 1.12927 2.32093 1.20056 1.94249 1.39339L2.85047 3.1754C2.89986 3.15024 3.00064 3.11254 3.27248 3.09034C3.55594 3.06718 3.92834 3.06641 4.50488 3.06641V1.06641ZM2.30469 5.26636C2.30469 4.6898 2.30547 4.31755 2.32861 4.03423C2.35081 3.7626 2.38848 3.66189 2.41368 3.61244L0.631668 2.70446C0.438879 3.08283 0.36756 3.47602 0.335257 3.87136C0.30391 4.25502 0.304688 4.72281 0.304688 5.26636H2.30469ZM1.94249 1.39339C1.37775 1.68114 0.919156 2.14023 0.631668 2.70446L2.41368 3.61244C2.50969 3.42402 2.66257 3.27114 2.85047 3.1754L1.94249 1.39339ZM17.3047 6.06641V1.06641H15.3047V6.06641H17.3047ZM16.3047 0.0664062H11.3047V2.06641H16.3047V0.0664062ZM10.0118 8.77351L17.0118 1.77351L15.5976 0.359299L8.59758 7.3593L10.0118 8.77351Z" fill="#1772E1"/>
</svg>
